<?xml version="1.0" encoding="UTF-8" standalone="no"?>
<!DOCTYPE svg PUBLIC "-//W3C//DTD SVG 1.1//EN"
 "http://www.w3.org/Graphics/SVG/1.1/DTD/svg11.dtd">
<!-- Generated by graphviz version 2.26.3 (20100126.1600)
 -->
<!-- Title: G Pages: 1 -->
<svg width="322pt" height="382pt"
 viewBox="0.00 0.00 322.00 382.00" xmlns="http://www.w3.org/2000/svg" xmlns:xlink="http://www.w3.org/1999/xlink">
<g id="graph1" class="graph" transform="scale(1 1) rotate(0) translate(4 378)">
<title>G</title>
<polygon fill="white" stroke="white" points="-4,5 -4,-378 319,-378 319,5 -4,5"/>
<g id="graph2" class="cluster"><title>cluster_Global</title>
<polyline fill="none" stroke="gray" points="20,-8 294,-8 "/>
<path fill="none" stroke="gray" d="M294,-8C300,-8 306,-14 306,-20"/>
<polyline fill="none" stroke="gray" points="306,-20 306,-354 "/>
<path fill="none" stroke="gray" d="M306,-354C306,-360 300,-366 294,-366"/>
<polyline fill="none" stroke="gray" points="294,-366 20,-366 "/>
<path fill="none" stroke="gray" d="M20,-366C14,-366 8,-360 8,-354"/>
<polyline fill="none" stroke="gray" points="8,-354 8,-20 "/>
<path fill="none" stroke="gray" d="M8,-20C8,-14 14,-8 20,-8"/>
<text text-anchor="middle" x="157" y="-352.1" font-family="Times Roman,serif" font-size="11.00" fill="gray">\</text>
</g>
<g id="graph3" class="cluster"><title>cluster_\Dynamo</title>
<polyline fill="none" stroke="gray" points="28,-16 286,-16 "/>
<path fill="none" stroke="gray" d="M286,-16C292,-16 298,-22 298,-28"/>
<polyline fill="none" stroke="gray" points="298,-28 298,-324 "/>
<path fill="none" stroke="gray" d="M298,-324C298,-330 292,-336 286,-336"/>
<polyline fill="none" stroke="gray" points="286,-336 28,-336 "/>
<path fill="none" stroke="gray" d="M28,-336C22,-336 16,-330 16,-324"/>
<polyline fill="none" stroke="gray" points="16,-324 16,-28 "/>
<path fill="none" stroke="gray" d="M16,-28C16,-22 22,-16 28,-16"/>
<text text-anchor="middle" x="157" y="-322.1" font-family="Times Roman,serif" font-size="11.00" fill="gray">Dynamo</text>
</g>
<g id="graph4" class="cluster"><title>cluster_\Dynamo\Middleware</title>
<polyline fill="none" stroke="gray" points="178,-178 278,-178 "/>
<path fill="none" stroke="gray" d="M278,-178C284,-178 290,-184 290,-190"/>
<polyline fill="none" stroke="gray" points="290,-190 290,-294 "/>
<path fill="none" stroke="gray" d="M290,-294C290,-300 284,-306 278,-306"/>
<polyline fill="none" stroke="gray" points="278,-306 178,-306 "/>
<path fill="none" stroke="gray" d="M178,-306C172,-306 166,-300 166,-294"/>
<polyline fill="none" stroke="gray" points="166,-294 166,-190 "/>
<path fill="none" stroke="gray" d="M166,-190C166,-184 172,-178 178,-178"/>
<text text-anchor="middle" x="228" y="-292.1" font-family="Times Roman,serif" font-size="11.00" fill="gray">Middleware</text>
</g>
<!-- \\Dynamo\\Middleware\\CORS -->
<g id="node4" class="node"><title>\\Dynamo\\Middleware\\CORS</title>
<polygon fill="none" stroke="black" points="255,-276 201,-276 201,-240 255,-240 255,-276"/>
<text text-anchor="middle" x="228" y="-255.1" font-family="Times Roman,serif" font-size="11.00">CORS</text>
</g>
<!-- \\Dynamo\\Middleware\\RequestDuration -->
<g id="node5" class="node"><title>\\Dynamo\\Middleware\\RequestDuration</title>
<polygon fill="none" stroke="black" points="281,-222 175,-222 175,-186 281,-186 281,-222"/>
<text text-anchor="middle" x="228" y="-201.1" font-family="Times Roman,serif" font-size="11.00">RequestDuration</text>
</g>
<!-- \\Dynamo\\HttpRequest -->
<g id="node6" class="node"><title>\\Dynamo\\HttpRequest</title>
<polygon fill="none" stroke="black" points="270,-168 186,-168 186,-132 270,-132 270,-168"/>
<text text-anchor="middle" x="228" y="-147.1" font-family="Times Roman,serif" font-size="11.00">HttpRequest</text>
</g>
<!-- \\Dynamo\\Proxy -->
<g id="node9" class="node"><title>\\Dynamo\\Proxy</title>
<polygon fill="none" stroke="black" points="90,-141 36,-141 36,-105 90,-105 90,-141"/>
<text text-anchor="middle" x="63" y="-120.1" font-family="Times Roman,serif" font-size="11.00">Proxy</text>
</g>
<!-- \\Dynamo\\HttpRequest&#45;&gt;\\Dynamo\\Proxy -->
<g id="edge5" class="edge"><title>\\Dynamo\\HttpRequest&#45;&gt;\\Dynamo\\Proxy</title>
<path fill="none" stroke="black" d="M185.079,-142.977C158.727,-138.664 125.315,-133.197 100.11,-129.072"/>
<polygon fill="none" stroke="black" points="100.633,-125.612 90.1987,-127.451 99.5022,-132.52 100.633,-125.612"/>
</g>
<!-- \\Dynamo\\HttpResponse -->
<g id="node7" class="node"><title>\\Dynamo\\HttpResponse</title>
<polygon fill="none" stroke="black" points="274,-114 182,-114 182,-78 274,-78 274,-114"/>
<text text-anchor="middle" x="228" y="-93.1" font-family="Times Roman,serif" font-size="11.00">HttpResponse</text>
</g>
<!-- \\Dynamo\\HttpResponse&#45;&gt;\\Dynamo\\Proxy -->
<g id="edge7" class="edge"><title>\\Dynamo\\HttpResponse&#45;&gt;\\Dynamo\\Proxy</title>
<path fill="none" stroke="black" d="M181.159,-103.665C155.597,-107.848 124.379,-112.956 100.452,-116.872"/>
<polygon fill="none" stroke="black" points="99.654,-113.455 90.3505,-118.524 100.785,-120.364 99.654,-113.455"/>
</g>
<!-- \\Dynamo\\WebApp -->
<g id="node8" class="node"><title>\\Dynamo\\WebApp</title>
<polygon fill="none" stroke="black" points="266,-60 190,-60 190,-24 266,-24 266,-60"/>
<text text-anchor="start" x="198" y="-47.4333" font-family="Times Roman,serif" font-size="11.00">«abstract»</text>
<text text-anchor="start" x="205" y="-34.2333" font-family="Times Roman,serif" font-size="11.00">WebApp</text>
</g>
<!-- \\Dynamo\\App -->
<g id="node10" class="node"><title>\\Dynamo\\App</title>
<polygon fill="none" stroke="black" points="101,-60 25,-60 25,-24 101,-24 101,-60"/>
<text text-anchor="start" x="33" y="-47.4333" font-family="Times Roman,serif" font-size="11.00">«abstract»</text>
<text text-anchor="start" x="52" y="-34.2333" font-family="Times Roman,serif" font-size="11.00">App</text>
</g>
<!-- \\Dynamo\\WebApp&#45;&gt;\\Dynamo\\App -->
<g id="edge9" class="edge"><title>\\Dynamo\\WebApp&#45;&gt;\\Dynamo\\App</title>
<path fill="none" stroke="black" d="M189.315,-42C166.228,-42 136.693,-42 111.988,-42"/>
<polygon fill="none" stroke="black" points="111.728,-38.5001 101.728,-42 111.728,-45.5001 111.728,-38.5001"/>
</g>
</g>
</svg>
