<?xml version="1.0" encoding="UTF-8" standalone="no"?>
<!DOCTYPE svg PUBLIC "-//W3C//DTD SVG 1.1//EN"
 "http://www.w3.org/Graphics/SVG/1.1/DTD/svg11.dtd">
<!-- Generated by graphviz version 2.26.3 (20100126.1600)
 -->
<!-- Title: G Pages: 1 -->
<svg width="548pt" height="580pt"
 viewBox="0.00 0.00 548.00 580.00" xmlns="http://www.w3.org/2000/svg" xmlns:xlink="http://www.w3.org/1999/xlink">
<g id="graph1" class="graph" transform="scale(1 1) rotate(0) translate(4 576)">
<title>G</title>
<polygon fill="white" stroke="white" points="-4,5 -4,-576 545,-576 545,5 -4,5"/>
<g id="graph2" class="cluster"><title>cluster_Global</title>
<polyline fill="none" stroke="gray" points="121,-98 520,-98 "/>
<path fill="none" stroke="gray" d="M520,-98C526,-98 532,-104 532,-110"/>
<polyline fill="none" stroke="gray" points="532,-110 532,-552 "/>
<path fill="none" stroke="gray" d="M532,-552C532,-558 526,-564 520,-564"/>
<polyline fill="none" stroke="gray" points="520,-564 121,-564 "/>
<path fill="none" stroke="gray" d="M121,-564C115,-564 109,-558 109,-552"/>
<polyline fill="none" stroke="gray" points="109,-552 109,-110 "/>
<path fill="none" stroke="gray" d="M109,-110C109,-104 115,-98 121,-98"/>
<text text-anchor="middle" x="320.5" y="-550.1" font-family="Times Roman,serif" font-size="11.00" fill="gray">Global</text>
</g>
<g id="graph3" class="cluster"><title>cluster_\Dynamo</title>
<polyline fill="none" stroke="gray" points="129,-106 512,-106 "/>
<path fill="none" stroke="gray" d="M512,-106C518,-106 524,-112 524,-118"/>
<polyline fill="none" stroke="gray" points="524,-118 524,-522 "/>
<path fill="none" stroke="gray" d="M524,-522C524,-528 518,-534 512,-534"/>
<polyline fill="none" stroke="gray" points="512,-534 129,-534 "/>
<path fill="none" stroke="gray" d="M129,-534C123,-534 117,-528 117,-522"/>
<polyline fill="none" stroke="gray" points="117,-522 117,-118 "/>
<path fill="none" stroke="gray" d="M117,-118C117,-112 123,-106 129,-106"/>
<text text-anchor="middle" x="320.5" y="-520.1" font-family="Times Roman,serif" font-size="11.00" fill="gray">Dynamo</text>
</g>
<g id="graph4" class="cluster"><title>cluster_\Dynamo\Middleware</title>
<polyline fill="none" stroke="gray" points="404,-322 504,-322 "/>
<path fill="none" stroke="gray" d="M504,-322C510,-322 516,-328 516,-334"/>
<polyline fill="none" stroke="gray" points="516,-334 516,-492 "/>
<path fill="none" stroke="gray" d="M516,-492C516,-498 510,-504 504,-504"/>
<polyline fill="none" stroke="gray" points="504,-504 404,-504 "/>
<path fill="none" stroke="gray" d="M404,-504C398,-504 392,-498 392,-492"/>
<polyline fill="none" stroke="gray" points="392,-492 392,-334 "/>
<path fill="none" stroke="gray" d="M392,-334C392,-328 398,-322 404,-322"/>
<text text-anchor="middle" x="454" y="-490.1" font-family="Times Roman,serif" font-size="11.00" fill="gray">Middleware</text>
</g>
<!-- \\Dynamo\\Middleware\\RequestDuration -->
<g id="node4" class="node"><title>\\Dynamo\\Middleware\\RequestDuration</title>
<polygon fill="none" stroke="black" points="507,-474 401,-474 401,-438 507,-438 507,-474"/>
<text text-anchor="middle" x="454" y="-453.1" font-family="Times Roman,serif" font-size="11.00">RequestDuration</text>
</g>
<!-- \\Dynamo\\Middleware\\Directory -->
<g id="node5" class="node"><title>\\Dynamo\\Middleware\\Directory</title>
<polygon fill="none" stroke="black" points="487,-420 421,-420 421,-384 487,-384 487,-420"/>
<text text-anchor="middle" x="454" y="-399.1" font-family="Times Roman,serif" font-size="11.00">Directory</text>
</g>
<!-- \\Dynamo\\Middleware\\CORS -->
<g id="node6" class="node"><title>\\Dynamo\\Middleware\\CORS</title>
<polygon fill="none" stroke="black" points="481,-366 427,-366 427,-330 481,-330 481,-366"/>
<text text-anchor="middle" x="454" y="-345.1" font-family="Times Roman,serif" font-size="11.00">CORS</text>
</g>
<!-- \\Dynamo\\HttpResponse -->
<g id="node7" class="node"><title>\\Dynamo\\HttpResponse</title>
<polygon fill="none" stroke="black" points="500,-258 408,-258 408,-222 500,-222 500,-258"/>
<text text-anchor="middle" x="454" y="-237.1" font-family="Times Roman,serif" font-size="11.00">HttpResponse</text>
</g>
<!-- \\Sabre\\HTTP\\Response -->
<g id="node13" class="node"><title>\\Sabre\\HTTP\\Response</title>
<ellipse fill="none" stroke="black" cx="164" cy="-72" rx="121.122" ry="18.3848"/>
<text text-anchor="middle" x="164" y="-68.4" font-family="Times Roman,serif" font-size="14.00" fill="gray">\Sabre\HTTP\Response</text>
</g>
<!-- \\Dynamo\\HttpResponse&#45;&gt;\\Sabre\\HTTP\\Response -->
<g id="edge5" class="edge"><title>\\Dynamo\\HttpResponse&#45;&gt;\\Sabre\\HTTP\\Response</title>
<path fill="none" stroke="black" d="M407.307,-223.639C401.813,-220.597 396.552,-217.068 392,-213 349.537,-175.056 374.533,-134.825 328,-102 315.389,-93.1037 300.916,-86.6119 285.905,-81.9088"/>
<polygon fill="none" stroke="black" points="286.554,-78.4541 275.977,-79.0692 284.629,-85.1842 286.554,-78.4541"/>
</g>
<!-- \\Dynamo\\App -->
<g id="node8" class="node"><title>\\Dynamo\\App</title>
<polygon fill="none" stroke="black" points="202,-312 126,-312 126,-276 202,-276 202,-312"/>
<text text-anchor="start" x="134" y="-299.433" font-family="Times Roman,serif" font-size="11.00">«abstract»</text>
<text text-anchor="start" x="153" y="-286.233" font-family="Times Roman,serif" font-size="11.00">App</text>
</g>
<!-- \\Dynamo\\WebApp -->
<g id="node9" class="node"><title>\\Dynamo\\WebApp</title>
<polygon fill="none" stroke="black" points="492,-312 416,-312 416,-276 492,-276 492,-312"/>
<text text-anchor="start" x="424" y="-299.433" font-family="Times Roman,serif" font-size="11.00">«abstract»</text>
<text text-anchor="start" x="431" y="-286.233" font-family="Times Roman,serif" font-size="11.00">WebApp</text>
</g>
<!-- \\Dynamo\\WebApp&#45;&gt;\\Dynamo\\App -->
<g id="edge7" class="edge"><title>\\Dynamo\\WebApp&#45;&gt;\\Dynamo\\App</title>
<path fill="none" stroke="black" d="M415.49,-294C363.274,-294 269.995,-294 212.892,-294"/>
<polygon fill="none" stroke="black" points="212.669,-290.5 202.669,-294 212.669,-297.5 212.669,-290.5"/>
</g>
<!-- \\Dynamo\\Proxy -->
<g id="node10" class="node"><title>\\Dynamo\\Proxy</title>
<polygon fill="none" stroke="black" points="481,-204 427,-204 427,-168 481,-168 481,-204"/>
<text text-anchor="middle" x="454" y="-183.1" font-family="Times Roman,serif" font-size="11.00">Proxy</text>
</g>
<!-- \\Dynamo\\HttpRequest -->
<g id="node11" class="node"><title>\\Dynamo\\HttpRequest</title>
<polygon fill="none" stroke="black" points="496,-150 412,-150 412,-114 496,-114 496,-150"/>
<text text-anchor="middle" x="454" y="-129.1" font-family="Times Roman,serif" font-size="11.00">HttpRequest</text>
</g>
<!-- \\Sabre\\HTTP\\RequestDecorator -->
<g id="node16" class="node"><title>\\Sabre\\HTTP\\RequestDecorator</title>
<ellipse fill="none" stroke="black" cx="164" cy="-18" rx="164.049" ry="18.3848"/>
<text text-anchor="middle" x="164" y="-14.4" font-family="Times Roman,serif" font-size="14.00" fill="gray">\Sabre\HTTP\RequestDecorator</text>
</g>
<!-- \\Dynamo\\HttpRequest&#45;&gt;\\Sabre\\HTTP\\RequestDecorator -->
<g id="edge9" class="edge"><title>\\Dynamo\\HttpRequest&#45;&gt;\\Sabre\\HTTP\\RequestDecorator</title>
<path fill="none" stroke="black" d="M433.828,-113.792C410.242,-93.5795 369.165,-61.6204 328,-45 316.166,-40.2221 303.527,-36.2893 290.713,-33.052"/>
<polygon fill="none" stroke="black" points="291.429,-29.6249 280.89,-30.7096 289.806,-36.4339 291.429,-29.6249"/>
</g>
</g>
</svg>
