<?xml version="1.0" encoding="UTF-8" standalone="no"?>
<!DOCTYPE svg PUBLIC "-//W3C//DTD SVG 1.1//EN"
 "http://www.w3.org/Graphics/SVG/1.1/DTD/svg11.dtd">
<!-- Generated by graphviz version 2.26.3 (20100126.1600)
 -->
<!-- Title: G Pages: 1 -->
<svg width="300pt" height="328pt"
 viewBox="0.00 0.00 300.00 328.00" xmlns="http://www.w3.org/2000/svg" xmlns:xlink="http://www.w3.org/1999/xlink">
<g id="graph1" class="graph" transform="scale(1 1) rotate(0) translate(4 324)">
<title>G</title>
<polygon fill="white" stroke="white" points="-4,5 -4,-324 297,-324 297,5 -4,5"/>
<g id="graph2" class="cluster"><title>cluster_Global</title>
<polyline fill="none" stroke="gray" points="20,-8 272,-8 "/>
<path fill="none" stroke="gray" d="M272,-8C278,-8 284,-14 284,-20"/>
<polyline fill="none" stroke="gray" points="284,-20 284,-300 "/>
<path fill="none" stroke="gray" d="M284,-300C284,-306 278,-312 272,-312"/>
<polyline fill="none" stroke="gray" points="272,-312 20,-312 "/>
<path fill="none" stroke="gray" d="M20,-312C14,-312 8,-306 8,-300"/>
<polyline fill="none" stroke="gray" points="8,-300 8,-20 "/>
<path fill="none" stroke="gray" d="M8,-20C8,-14 14,-8 20,-8"/>
<text text-anchor="middle" x="146" y="-298.1" font-family="Times Roman,serif" font-size="11.00" fill="gray">\</text>
</g>
<g id="graph3" class="cluster"><title>cluster_\Dynamo</title>
<polyline fill="none" stroke="gray" points="28,-16 264,-16 "/>
<path fill="none" stroke="gray" d="M264,-16C270,-16 276,-22 276,-28"/>
<polyline fill="none" stroke="gray" points="276,-28 276,-270 "/>
<path fill="none" stroke="gray" d="M276,-270C276,-276 270,-282 264,-282"/>
<polyline fill="none" stroke="gray" points="264,-282 28,-282 "/>
<path fill="none" stroke="gray" d="M28,-282C22,-282 16,-276 16,-270"/>
<polyline fill="none" stroke="gray" points="16,-270 16,-28 "/>
<path fill="none" stroke="gray" d="M16,-28C16,-22 22,-16 28,-16"/>
<text text-anchor="middle" x="146" y="-268.1" font-family="Times Roman,serif" font-size="11.00" fill="gray">Dynamo</text>
</g>
<g id="graph4" class="cluster"><title>cluster_\Dynamo\Middleware</title>
<polyline fill="none" stroke="gray" points="193,-178 248,-178 "/>
<path fill="none" stroke="gray" d="M248,-178C254,-178 260,-184 260,-190"/>
<polyline fill="none" stroke="gray" points="260,-190 260,-240 "/>
<path fill="none" stroke="gray" d="M260,-240C260,-246 254,-252 248,-252"/>
<polyline fill="none" stroke="gray" points="248,-252 193,-252 "/>
<path fill="none" stroke="gray" d="M193,-252C187,-252 181,-246 181,-240"/>
<polyline fill="none" stroke="gray" points="181,-240 181,-190 "/>
<path fill="none" stroke="gray" d="M181,-190C181,-184 187,-178 193,-178"/>
<text text-anchor="middle" x="220.5" y="-238.1" font-family="Times Roman,serif" font-size="11.00" fill="gray">Middleware</text>
</g>
<!-- \\Dynamo\\Middleware\\CORS -->
<g id="node4" class="node"><title>\\Dynamo\\Middleware\\CORS</title>
<polygon fill="none" stroke="black" points="248,-222 194,-222 194,-186 248,-186 248,-222"/>
<text text-anchor="middle" x="221" y="-201.1" font-family="Times Roman,serif" font-size="11.00">CORS</text>
</g>
<!-- \\Dynamo\\Proxy -->
<g id="node5" class="node"><title>\\Dynamo\\Proxy</title>
<polygon fill="none" stroke="black" points="90,-87 36,-87 36,-51 90,-51 90,-87"/>
<text text-anchor="middle" x="63" y="-66.1" font-family="Times Roman,serif" font-size="11.00">Proxy</text>
</g>
<!-- \\Dynamo\\WebApp -->
<g id="node6" class="node"><title>\\Dynamo\\WebApp</title>
<polygon fill="none" stroke="black" points="259,-168 183,-168 183,-132 259,-132 259,-168"/>
<text text-anchor="start" x="191" y="-155.433" font-family="Times Roman,serif" font-size="11.00">«abstract»</text>
<text text-anchor="start" x="198" y="-142.233" font-family="Times Roman,serif" font-size="11.00">WebApp</text>
</g>
<!-- \\Dynamo\\App -->
<g id="node9" class="node"><title>\\Dynamo\\App</title>
<polygon fill="none" stroke="black" points="101,-168 25,-168 25,-132 101,-132 101,-168"/>
<text text-anchor="start" x="33" y="-155.433" font-family="Times Roman,serif" font-size="11.00">«abstract»</text>
<text text-anchor="start" x="52" y="-142.233" font-family="Times Roman,serif" font-size="11.00">App</text>
</g>
<!-- \\Dynamo\\WebApp&#45;&gt;\\Dynamo\\App -->
<g id="edge5" class="edge"><title>\\Dynamo\\WebApp&#45;&gt;\\Dynamo\\App</title>
<path fill="none" stroke="black" d="M182.349,-150C161.037,-150 134.371,-150 111.652,-150"/>
<polygon fill="none" stroke="black" points="111.526,-146.5 101.526,-150 111.526,-153.5 111.526,-146.5"/>
</g>
<!-- \\Dynamo\\HttpRequest -->
<g id="node7" class="node"><title>\\Dynamo\\HttpRequest</title>
<polygon fill="none" stroke="black" points="263,-114 179,-114 179,-78 263,-78 263,-114"/>
<text text-anchor="middle" x="221" y="-93.1" font-family="Times Roman,serif" font-size="11.00">HttpRequest</text>
</g>
<!-- \\Dynamo\\HttpRequest&#45;&gt;\\Dynamo\\Proxy -->
<g id="edge7" class="edge"><title>\\Dynamo\\HttpRequest&#45;&gt;\\Dynamo\\Proxy</title>
<path fill="none" stroke="black" d="M178.243,-88.6934C153.882,-84.5305 123.651,-79.3644 100.265,-75.368"/>
<polygon fill="none" stroke="black" points="100.82,-71.9123 90.3735,-73.6778 99.641,-78.8123 100.82,-71.9123"/>
</g>
<!-- \\Dynamo\\HttpResponse -->
<g id="node8" class="node"><title>\\Dynamo\\HttpResponse</title>
<polygon fill="none" stroke="black" points="267,-60 175,-60 175,-24 267,-24 267,-60"/>
<text text-anchor="middle" x="221" y="-39.1" font-family="Times Roman,serif" font-size="11.00">HttpResponse</text>
</g>
<!-- \\Dynamo\\HttpResponse&#45;&gt;\\Dynamo\\Proxy -->
<g id="edge9" class="edge"><title>\\Dynamo\\HttpResponse&#45;&gt;\\Dynamo\\Proxy</title>
<path fill="none" stroke="black" d="M174.449,-49.9549C150.875,-53.9834 122.634,-58.8094 100.479,-62.5953"/>
<polygon fill="none" stroke="black" points="99.7213,-59.174 90.4538,-64.3085 100.901,-66.074 99.7213,-59.174"/>
</g>
</g>
</svg>
